<svg xmlns="http://www.w3.org/2000/svg" viewBox="0 0 40 40" fill="none">
  <rect width="40" height="40" rx="9" fill="#0b4f4a"/>
  <circle cx="20" cy="20" r="17" stroke="#7fc4bc" stroke-width="1" opacity="0.35" stroke-dasharray="2.5 3"/>
  <path d="M7 15C10 9 16 6 22 7" stroke="#9fd5cf" stroke-width="1.15" stroke-linecap="round" opacity="0.75"/>
  <path d="M18 33C24 34 31 30 34 24" stroke="#9fd5cf" stroke-width="1.15" stroke-linecap="round" opacity="0.75"/>
  <path d="M12 13L20 20L28 13" stroke="#c8ebe6" stroke-width="1.2" stroke-linecap="round" stroke-linejoin="round" opacity="0.85"/>
  <path d="M20 20V29" stroke="#c8ebe6" stroke-width="1.2" stroke-linecap="round" opacity="0.85"/>
  <path d="M18.2 12.2C14.6 12.2 11.8 15.1 11.8 18.8C11.8 22.5 14.6 25.4 18.2 25.4C19.4 25.4 20.5 25.1 21.4 24.5" stroke="#f7f8f6" stroke-width="2.55" stroke-linecap="round"/>
  <path d="M29.8 17.2C28.8 14.1 25.8 12.2 22.4 12.2C19 12.2 16.2 15.1 16.2 18.8C16.2 22.5 19 25.4 22.4 25.4C24.5 25.4 26.3 24.4 27.4 22.8V20.4H23.2" stroke="#f7f8f6" stroke-width="2.55" stroke-linecap="round" stroke-linejoin="round"/>
  <circle cx="7" cy="15" r="1.55" fill="#9fd5cf"/>
  <circle cx="12" cy="13" r="1.25" fill="#c8ebe6"/>
  <circle cx="20" cy="20" r="1.85" fill="#f7f8f6"/>
  <circle cx="28" cy="13" r="1.25" fill="#c8ebe6"/>
  <circle cx="20" cy="29" r="1.45" fill="#9fd5cf"/>
  <circle cx="34" cy="24" r="1.55" fill="#9fd5cf"/>
  <circle cx="27.4" cy="20.4" r="1.15" fill="#f7f8f6"/>
</svg>
